<svg width="35" height="35" viewBox="0 0 35 35" fill="none" xmlns="http://www.w3.org/2000/svg">
<path d="M29.1374 7.53879C26.3511 5.29661 21.9433 4.91653 21.7546 4.90286C21.462 4.87825 21.1831 5.04231 21.0628 5.31301C21.0519 5.32942 20.9562 5.5509 20.8495 5.89543C22.6925 6.20715 24.9565 6.83333 27.0046 8.10481C27.3327 8.30715 27.4339 8.73918 27.2315 9.06731C27.0976 9.28333 26.8706 9.4009 26.6354 9.4009C26.5097 9.4009 26.3812 9.36536 26.2663 9.29426C22.7444 7.1095 18.3476 7.00012 17.4999 7.00012C16.6522 7.00012 12.2526 7.1095 8.7335 9.29426C8.40537 9.49934 7.97334 9.39817 7.771 9.07004C7.56592 8.73918 7.66709 8.30989 7.99521 8.10481C10.0433 6.83606 12.3073 6.20715 14.1503 5.89817C14.0437 5.5509 13.9479 5.33215 13.9397 5.31301C13.8167 5.04231 13.5405 4.87278 13.2452 4.90286C13.0565 4.91653 8.64873 5.29661 5.82412 7.56887C4.35029 8.93333 1.3999 16.9068 1.3999 23.8001C1.3999 23.9232 1.43271 24.0407 1.49287 24.1474C3.52725 27.724 9.08076 28.6591 10.3468 28.7001C10.3522 28.7001 10.3604 28.7001 10.3687 28.7001C10.5929 28.7001 10.8034 28.5935 10.9347 28.413L12.2144 26.6521C8.76084 25.7607 6.99717 24.2458 6.896 24.1556C6.60615 23.9013 6.57881 23.4583 6.83584 23.1685C7.09014 22.8786 7.53311 22.8513 7.82295 23.1056C7.86397 23.1439 11.1124 25.9001 17.4999 25.9001C23.8983 25.9001 27.1468 23.1329 27.1796 23.1056C27.4694 22.854 27.9097 22.8786 28.1667 23.1712C28.421 23.4611 28.3937 23.9013 28.1038 24.1556C28.0026 24.2458 26.239 25.7607 22.7854 26.6521L24.0651 28.413C24.1964 28.5935 24.4069 28.7001 24.6312 28.7001C24.6394 28.7001 24.6476 28.7001 24.653 28.7001C25.919 28.6591 31.4726 27.724 33.5069 24.1474C33.5671 24.0407 33.5999 23.9232 33.5999 23.8001C33.5999 16.9068 30.6495 8.93333 29.1374 7.53879ZM12.9499 21.0001C11.5964 21.0001 10.4999 19.7478 10.4999 18.2001C10.4999 16.6525 11.5964 15.4001 12.9499 15.4001C14.3034 15.4001 15.3999 16.6525 15.3999 18.2001C15.3999 19.7478 14.3034 21.0001 12.9499 21.0001ZM22.0499 21.0001C20.6964 21.0001 19.5999 19.7478 19.5999 18.2001C19.5999 16.6525 20.6964 15.4001 22.0499 15.4001C23.4034 15.4001 24.4999 16.6525 24.4999 18.2001C24.4999 19.7478 23.4034 21.0001 22.0499 21.0001Z" fill="white"/>
</svg>
