<svg width="10" height="10" viewBox="0 0 10 10" fill="none" xmlns="http://www.w3.org/2000/svg">
<path d="M5 0C2.2375 0 0 2.29562 0 5.12688C0 7.3925 1.4325 9.31377 3.41875 9.99116C3.66875 10.0394 3.76042 9.88072 3.76042 9.74464C3.76042 9.6229 3.75625 9.3003 3.75417 8.87291C2.36333 9.18204 2.07 8.1851 2.07 8.1851C1.8425 7.59337 1.51375 7.43511 1.51375 7.43511C1.06083 7.11729 1.54875 7.12381 1.54875 7.12381C2.05083 7.15946 2.31458 7.65206 2.31458 7.65206C2.76042 8.43596 3.485 8.20944 3.77083 8.07858C3.81583 7.74684 3.94458 7.52119 4.0875 7.39293C2.97708 7.26467 1.81 6.82381 1.81 4.85949C1.81 4.29994 2.00375 3.84255 2.32458 3.48386C2.26833 3.3543 2.09958 2.833 2.36833 2.12692C2.36833 2.12692 2.78708 1.98954 3.74333 2.65257C4.14333 2.53866 4.56833 2.48214 4.99333 2.47953C5.41833 2.48214 5.84333 2.53866 6.24333 2.65257C7.19333 1.98954 7.61208 2.12692 7.61208 2.12692C7.88083 2.833 7.71208 3.3543 7.66208 3.48386C7.98083 3.84255 8.17458 4.29994 8.17458 4.85949C8.17458 6.82903 7.00583 7.2625 5.89333 7.38859C6.06833 7.5425 6.23083 7.85684 6.23083 8.33727C6.23083 9.02334 6.22458 9.57464 6.22458 9.74116C6.22458 9.87551 6.31208 10.0359 6.56833 9.98463C8.56875 9.3116 10 7.38902 10 5.12688C10 2.29562 7.76125 0 5 0Z" fill="white"/>
</svg>
