<svg width="10" height="10" viewBox="0 0 10 10" fill="none" xmlns="http://www.w3.org/2000/svg">
<g clip-path="url(#clip0_1704_29)">
<path d="M9.99752 9.99993V9.99951H10V6.33201C10 4.53784 9.61377 3.15576 7.51627 3.15576C6.50794 3.15576 5.83127 3.7091 5.55502 4.23368H5.52586V3.32326H3.53711V9.99951H5.60794V6.69368C5.60794 5.82326 5.77294 4.98159 6.85086 4.98159C7.91294 4.98159 7.92877 5.97493 7.92877 6.74951V9.99993H9.99752Z" fill="white"/>
<path d="M0.165039 3.32373H2.23837V9.99998H0.165039V3.32373Z" fill="white"/>
<path d="M1.20083 0C0.537917 0 0 0.537917 0 1.20083C0 1.86375 0.537917 2.41292 1.20083 2.41292C1.86375 2.41292 2.40167 1.86375 2.40167 1.20083C2.40125 0.537917 1.86333 0 1.20083 0V0Z" fill="white"/>
</g>
<defs>
<clipPath id="clip0_1704_29">
<rect width="10" height="10" fill="white"/>
</clipPath>
</defs>
</svg>
